<mxfile host="65bd71144e">
    <diagram id="ExEm-1PZ6MmAIx5OQXnp" name="Page-1">
        <mxGraphModel dx="119" dy="699" grid="1" gridSize="10" guides="1" tooltips="1" connect="1" arrows="1" fold="1" page="1" pageScale="1" pageWidth="827" pageHeight="1169" math="0" shadow="0">
            <root>
                <mxCell id="0"/>
                <mxCell id="1" parent="0"/>
                <mxCell id="2" value="" style="shape=image;verticalLabelPosition=bottom;labelBackgroundColor=default;verticalAlign=top;aspect=fixed;imageAspect=0;image=data:image/png,iVBORw0KGgoAAAANSUhEUgAAAgAAAAJ4CAYAAAATCVtWAAAABHNCSVQICAgIfAhkiAAAIABJREFUeJzs3X90lPWd9//XFaVLokIws1AaDybZbhNw16g3dKmBvTFuCetN1YYqYQPbb8s5G5C6HgX6PffhBLdJOe1RwNrFLuyt0m2StWLJ2lvgZM9Rtt86U7FwI7VdnLQWkTVYuCf80s4gWj7fP2aucfILZpKZua5rrufjnDnJ/Lrmk7km835dn+tzXR8JAAAAAAAAAAAAAAAAAAAgA82SzDCXujEsr3UUz2tNPPdS6iRtlVQ8iuUDAOBKVzr42tskPSgp5mAb2h18bQAAHFPkdANGkNpDcEhS9Qj3NSu+hd4pqU0f9wLUpTwmdeu9VdIPU56b2gNQJqkn5Xmj6VEAAMAT3BgA6iQtkxSQZEnaKenelPvmSipJ3L9QUkTSUknrFd+ir5b0hKQ5icdJ0pqU5Z9J3N6VcluxpA2SOhKvWZN4fmrwAACgYDgZAFokRTVwa16SQpIWSOpPXD+S8px6SS8rvtugX9ISSb2DlhuQtE/SwcTjOhQPDmWJ+/s0dLdDTNIKfRwKIpJOje7PAgDA/ZwMANsU3xK3Ehe7+BYr3m1vB4POlNvL01huxaDrEUmnU64f0fBSdxtEJE1P47UAAPAkN+4CaEz8tMPB0sT1mOJb75dzdND1gKRJl3lOmeL7/OckXjMg6Y00XgsAAE9yYwBIVab4eADbEcXHABTr40F7gw8djEiaLemWxOOWKb5boV/pWyB6AAAABcyNAaBH8W78qOK7Bf5J8a7/4sT1vsR9EcX374cU3+q3jwLolbRKUjDxOEnaeJnX7E8sK6j4LoCrFB9HEMjKXwQAAAAAAAAAAAAAAAAAAAAAAAAAAAAAAAAAAAAAAAAAAAAAAAAAAAAAAAAAAAAAAAAAAAAAAAAAAAAAAAAAAAAAAAAAAAAAAAAAAAAAGJmV59e7RtLUQZcJeW5DJs5JenfQ5T1HWwQAQBbkOgDMlHSHpP8hqUbuLvbpOicpLGm3pD2SDjjbHAAAMpeLAHBHyqUy9Y6rrrpKU6dOHXApLS3NQROy48yZM3r33XcHXH7/+98PfthbigcB+wIAgK8sl/QbSca+XH/99WblypXmhRdeMGfOnDGF4MyZM+aFF14wK1euNNdff71J/XsTf/9yx9YAAAB59CXFu8GNJDNz5kyzfv16s2/fPqdrdV7s27fPrF+/3sycOTM1CBxIvC8AABSc+ZL2KlH0qqurzfbt252ux47avn27qa6uTg0CexPvEwAABeHrShS5qVOnmu985ztO115Xefzxx83UqVNTg8DXHV1bAABkwZNKFLaHH37YXLhwwel660oXLlwwDz/8cGoIeNLRtQYAwChVSvqpJDNu3DjT1dXldI31hK6uLjNu3Dg7BPxUg46MAADAzW6T9DtJZsaMGWb//v1O11VP2b9/v5kxY4YdAn6XeD8BAHC1Kkl9kszdd99tzp4963Q99aSzZ8+au+++2w4BfYn3FQAAV7pC0s8kmTvvvNPpGloQ7rzzTjsE/Czx/gIA4DrPSDK1tbXm3LlzTtfOgnDu3DlTW1trh4BnHF6/AAAM8W1JprS01Pzyl790um4WlF/96lemtLTUDgHfdng9AwCQdLcSh6/t3r3b6XpZkHbv3p16iODdjq5tAAASDkgyGzdudLpOFrSNGzemnjoYAABHrZBkampqnK6PvlBTU2OHgBUOr3cAgI+NKyoqeleS6ezsdLo2+kJnZ6eRZBLv+ziH1z8AwKe+IcncdtttTtdFX7ntttvsXoBvOLz+AQA+VCrpI0nmpZdecrom+sqLL75oB4CPEusBAICcKkr5/QuSrvj85z+v+vp6p9rjS7fffrs+//nPS/ETA33B4eYAAHxgcADQF75A/XFCyvvOCgAA5JyV+HmlZVm/N8Z84q233lJFRYWTbfKlo0ePqrKyUpZlXTDGXKX47gAAAHLC7gH4gjHmE5/73Oco/g6pqKjQ5z73ORljPiF6AQAAOZYMABLd/05jNwAAIF/sAPBXEgHAaSnv/1852Q4AQOGzA8CnJOkzn/mMg00ZXnt7uyzLSl5CodCA+7q6uka1zNE8L9dS3v9POdkOAEDhK5I0VdIVkydP1ic+8Qmn2zNAe3u7+vr6FI1GZYxROBzWqlWrBoSAQvKJT3xCkydPluKHA051uDkAgAL33ySZm266ydGT4QwWjUZNS0vLkFMSt7W1mba2tuQpdJVy2uLU22pra004HE4uZ/HixUaSWb9+/ZDnuclNN91kt++/OfWBAAAUviuV6G7+1Kfc1etcXFysuXPnaunSpTpy5IhaW1slKflTko4cOaKqqio1NzcrFAqpo6NDkUhEZWVlam9v144dO7RmzRpJ0g033CBjjCTpyiuvTD7PbT71qU/p0KFDUny9/B+HmwMAKFBFcmkAkKTm5mZFIhGFQqHkGID29vZhH1tXV6eenh6VlZVJkqqqqgbcP/i6W6WsB/etEABAwSiS9EnJnQFAksrKytTT0yNjjKLRqPr6+oYdwBeLxbRixYpkUFi6dOmA+71yfoOU9fBJJ9sBAChsRZJ+J0nHjx93uCkD9ff3a8WKFerv70/eZu8WOHLkyJDHd3d3S1JywGBnZ2fe2ppNKevhd062AwBQ2IokHZfcFwDKyspUXl6u733ve8nb+vv71dHRcdnufPtxXpSyHty1QgAABcW1AUD6eMCf3a0fCAS0bNmy5OC9qqoqLV26VF1dXVqwYIGOHj2qkpISNTc3a+XKlerr61MsFhuy3NTnuQ0BAACQD5bix5sfnzx5sk6cOOF0e3xvypQpOnnypBQfBPiuw80BABQoezbAjyRd8cEHH7juZEB+cuHCBf3RH/2RJP1B8UM0AQDICftUwMcl6de//rWDTUHK+0/3PwAgp+wA8KIkvfDCCw42BSnv/4tOtgMAUPjsAPCCRABwWsr7z4oAAOSUPQbgSsuyfm+M+cRbb73lmZPmFJKjR4+qsrJSlmVdMMZcpfi4DAAAcsLuAfjIGPNjiV4Ap9jve2I9UPwBADlVlPI7uwEcRPc/AMAppYpveZoXX3zRwQlx/eell16ypwD+KLEeAADIq29IMrfddpvTNdFXbrvtNjsAfMPh9Q8A8KlxRUVF70oynZ2dTtdFX+js7DSSTOJ9H+fw+gcA+NgKSaampsbp2ugLNTU19tb/CofXOwAAOiDJbNy40en6WNA2btxoF/8DDq9vAAAkSXcrXpjM7t27na6TBWn37t128TeJ9xsAAFf4tiRTWlpqfvWrXzldLwvKL3/5S1NaWmoX/287vJ4BABjiGUmmtrbWnDt3zum6WRDOnTtnamtr7eL/jMPrFwCAYV0h6WeSzJ133ul07SwId955p138f5Z4fwEAcKUqSX2SzN13323Onj3rdA31pLNnz5q7777bLv59ifcVAABXu03S7ySZGTNmmP379ztdTz1l//79ZsaMGXbx/13i/QQAwBMqJf1Ukhk3bpzp6upyuq56QldXlxk3bpxd/H+aeB8BAPCcJ5U4fO3hhx82Fy5ccLrGutKFCxfMww8/nHqo35OOrjUAALLg60oUtqlTp5rHH3/c6XrrKt/5znfM1KlTU4v/1x1dWwAAZNF8SXuVKHLV1dVm+/btTtdeR23fvt1UV1enFv69ifcJAICCc4+k/6NE0Zs5c6ZZv3692bdvn9P1OC/27dtn1q9fb2bOnJla+A8k3hcAAAreckm/0cdF0Fx//fVm5cqV5oUXXjBnzpxxulZnxZkzZ8wLL7xgVq5caa6//vrUom8Sf/9yx9YAAABpsnKwzDtSLgNGvF911VWaOnXqgEtpaWkOmpAdZ86c0bvvvjvg8vvf/37ww96StCflAgCA6+UiAKSaqXgQ+B+SaiRNyPHr5cM5SWFJuxUv+MzkBwDwnFwHgMGukTR10CWboeAfEpdsOSfp3UGX97K4fAAAkAXG6QYAAOAFRU43AAAA5B8BAAAAHyIAAADgQwQAAAB8iAAAAIAPEQAAAPAhAgAAAD5EAAAAwIcIAAAA+BABAAAAHyIAAADgQwQAAAB8iAAAAIAPEQAAAPAhAgAAAD5EAAAAwIcIAAAA+BABAAAAHyIAAADgQ14PAKslxSQ9MOj2BxK3r857iwAAQM5dI+mCpKikiCQjqT9x/ULifgAAUIC+JekDxYu/ffkgcTsAAChQ10g6r4EB4LzY+gcAoOCl9gKw9Q8AgE+k9gKw9Q8AgI98S/GBf2z9AwBwGVc68Jp/KunPJd2Y5eUaSW8mfv5DlpedS68r3u7fKH7oIgAABePPJP2bZVknNXCwHpePL0clLRntGwwAQCasPLzG30l6TFLJpEmTVFVVpaqqKs2YMSMPL+1+77zzjt5++229+OKL9k1flvQDB5sEAMCYPanEFu6aNWsMRrZ9+3a7J6Db2VUGAMDYNChR/J966imn66vrnT59OnV3AAAAOZXLuQAelKR169bpq1/9ag5fpjD09vbav77sZDsAAP6QqwCwXFLDrFmztG7duhy9RGEJBoP2rwQAAEDO5SQAFBUVLZXiW//FxcW5eImCs2vXrouJX3/qaEMAABilWyWZm2++2end6p4RCoXsff8HHV53AACfyEUPQKMkLVq0KAeLLkzd3cmB/zudbAcAAKM1fty4cf8lyRw+fNjpDWtPiMVi5rrrrrugeA/AdIfXHwDAJ7LdA9D44YcfXtfY2Kjp06ll6eju7tY777wzTvHj/99wuj0AAH/IdgBYJNH9n4mdO5O9/nT/AwA8abokU1lZaWKxmNM9655w+PBhe/DfEUnjnV19AAA/yWYPQKMkNTY2avx4alk6Ugb/dUs672BTAAA+k7UAYFnWPVI8ACA9O3bssI/95/z/AABPukOSqa+vd7pX3TN2795td/+/5PC6AwD4ULZ6AJLd/0jPoO5/AAA8Z2pRUdG50tJSc/z4cac3rD3h+PHj5uqrr/5I0mlJU51egQAA/8lGD0DjxYsXr1m0aJGmTs1tLYvFYlqxYoUsy0peurq60npue3t72o/Nte7ubr3//vtXKH7o37tOtwcA4D9ZCQBS7rv/+/v79cUvflHl5eUyxsgYo0gkoo6ODoVCoZy+drbR/Q8A8Lq8TfzT2dlpWlpaTDQaHXJ7W1tb8nowGLQH1yUf39nZmbyts7Mz5229FCb+AQC4wZVjfH5eJv6JxWJ6+eWXNXfu3CHTCzc3Nyd/7+3tVVtbm8LhsKZNm6YHH3xQGzduVGtrq44cOaKqqqoBj3cCE/8AANxgLLsAxluW9SUpf6P/Kyoqkr+3t7cnxwGsWLFCsVhMBw4cUGVlpaZNm6bi4mItW7ZMfX19isVieWnf5Zw/f17PPfccx/4DABw3lgDQaIy5Pp8T/xw9ejT5e2trq4wxCgaDAx6zbds2lZSUyLIszZkzR0ePHlU0Gs1L+y6nu7tbx44dKxIT/wAAHDaWAJC3iX+Ki4s1d+5cvfzyy5fdmm9ra0sOEjTGqKenR2VlZTlvYzqY+AcA4BajDQDTJTVWVlbmrft/wYIFOnr0qDZu3Ji8rb+/X+3t7cnrM2fOVDAYVG9vr6T4bgJ794DT3njjDXv//1ui+x8A4FHrJJnVq1fnfRR9W1tbckS/hhnVn3oUQENDg4lEIsYYkzwSwKmjAL75zW/a7do44rsKAIDLHZRkQqGQI8XUi26++WY7ANzq8LoDAGBUmPgnQ0z8AwBwm9GMAWDinwxx5j8AgNdNlXRmwoQJF5n4Jz3Hjx83EyZMuCjpjJj4BwDgEpmeCbBR0sR77rkn5xP/FIru7m6dO3fOkvQjMfEPAMAlMt0FQPd/huj+BwB4Xd4m/smXYDA47ARDqSKRiGlqajLhcDjj5TPxDwDArTLZBZCXiX/yqa6uTnV1dTlbPhP/AAC8brykI5LM4cOHR73FHY1GTUtLy7An8RluGl/78du2bTO1tbXJ59gnA0o90c/gZQeDwcu2x+4B6O/vNy0tLQNOMtTW1jZgmbW1tRn1AsRiMVNZWWkvLz+TJQAAkKZ0xwA0Sqoc68Q/3d3dKi8vlzFGkUhEL7/8svr7+9Xb26tVq1YpGAwmJ+5JPeXvwYMH9corrygYDGrp0qWqqqpSNBpVRUWFenp6ko+3lx0MBrVq1arkKYHT1dfXp2g0qmAwqJ07d+rYsWPasGGDmpqa9Oyzz6q6ujqjv/Wtt96SmPgHAOBC6QaArE/8U1ZWpq1bt6qsrEyRSESzZ8/WLbfckpzGNxQK6dSpU5KkuXPnqri4WIFAQE1NTVqwYIGKi4tVXl4uKT4nQCgUUn19vSTplltu0ezZsxWJRDJqk/06NTU1Y57hkIl/AABulk4AmC6pcdq0aRfHOvq/ublZkmRZlizLUigUkjRwml9JCgQCmjRpUvJ6RUVFWsufM2eOLMtSSUmJtm3bNmS5l5Pu61yOPfGPZVlvi9H/AAAXSicANErSPffcUzR+/Pgxv2Bra2tyF8CWLVvU29s7pPBGIhGdPn06o+VOmjRJ4XB4wFTAduDIN3vwnzHmR5LOO9IIAAAuIZ0AsEjKzrH/7e3t6urqSl6fOHGiAoGAAoGA9u3bp4MHDyoWi6mjo0N1dXW69tpr01puWVmZZsyYoR07dkiSent7ddNNNyV7GPItpfufrX8AgCtdLgDcIenm+vp63Xrr2Cexu++++9TR0SHLshQIBLRs2TKVlZWpurpaTzzxhObMmaOSkhJJ0po1azJa9po1a9TX1yfLslRTU6O1a9dm5RC/kpISTZw4UYsXL05rUOGePXv02muvSdJeST8bcwMAAHDAk5LMli1bMjjYz9+WL19uH/q3yuF1BwDAqEyVdPrqq6/+yKsT/4TD4eT5AwZfLncGwNE4fvy4KS0tNUVFRefExD8AABe71JkAGyWVLl682LMT/1RXV+vQoUN5e73u7m6dOXNGknaIiX8AAC52qTEATPyTISb+AQB43a2SzI033viHrPaRFzB74h/LsvLX5QAAwCiN1APQKEn33ntvptMF+1bKsf/POdwUAABGJSsT//gJE/8AALxmuC38rEz84ydM/AMA8JrhAkDWJ/4pdEz8AwDwuumSzHXXXXchFos53bPuCYcPHzaSzLhx4/5L8d0nAAC43uAegEZJWrx48bhsTPzjB/bgvw8//PBZMfEPAMAjBgeArE384xdM/AMA8Lr5ksy8efM49j9Nzz//vJFkioqK/sPplQcAQCZSewBmSdJdd93Fsf9piMVi2rBhgyTp4sWLnQ43BwCAjKQW+7+UpHnz5jnTEo/ZsGGD9u/fL0n/Lukph5sDAMCoGUnm7NmzTvesu962bdtSZxZscHa1AQAwNtslmc7OTqfrq6vdf//9qcX/SWdXGQAAo2Ol/L5E0r9K0u23367y8nJVVlY60yqXefPNN/Xmm2/qN7/5jU6dOiVJMUmtkjY52zIAALLji5J+q4+3cLmkXCzLelfS85JuHvU7DACAC1jD3FYiqTpxqclvc8bsYUnfyMFyD0g6rPgkSQAAwGWM0w0AAMALOOYfAAAfIgAAAOBDBAAAAHyIAAAAgA8RAAAA8CECAAAAPkQAAADAhwgAAAD4EAEAAAAfIgAAAOBDBAAAAHyIAAAAgA8RAAAA8CECAAAAPkQAAADAhwgAAAD4EAEAAAAfIgAAAOBDBAAAAHyIAAAAgA8RAAAA8CECAAAAPkQAAADAhwgAAAD4EAEAAAAfIgAAAOBDBAAAAHyIAAAAgA8RAAAA8CGvB4DVkmKSHhh0+wOJ21fnvUUAACDnrpF0QVJUUkSSkdSfuH4hcT8AAChA35L0geLF3758kLgdAAAUqGskndfAAHBebP0DAFDwUnsB2PoHAMAnUnsB2PoHAMBHvqX4wD+2/gEA8JEqSacSPwEAgA9MlvRzxXcB/DxxHQAAFLBk8Z81a5Z9FAAhAACAAjag+J84cYIQAABAgRtS/I0xhAAAAArYsMXfRggAAKDwXLL4EwIAACg8aRV/QgAAAIUjo+JPCAAAwPtGVfwJAQAAeNeYij8hAAAA78lK8ScEAADgHVkt/oQAAADcLyfFnxAAAIB75bT4EwIAAHCfvBR/QgAAAO6R1+JPCAAAwHmOFH9CAAAAznG0+BMCAADIP1cUf0IAAAD546ribyMEAACQO64s/jZCAAAA2efq4m8jBAAAkD2eKP42QgAAAGPnqeJvIwQAADB6niz+NkIAAACZ83TxtxECAABIX0EUfxshAACAyyuo4m8jBAAAMLKCLP42QgAAAEMVdPG3EQIAAPiYL4q/jRAAAIDPir+NEAAA8DNfFn8bIQAA4Ee+Lv42QgAAwE8o/ikIAQAAP6D4D4MQAAAoZBT/SyAEAAAKEcU/DYQAAEAhcU3xj0ajpqWlxQSDQWOMMW1tbUaSaWlpMdFo1LF2pSIEAAAKgWuK/2DRaNSsXbvWhMNhp5syBCEAAOBlriv+dg/ASy+9ZFpaWuwCm+wRcBNCAADAi1xX/I0ZuAtg8O4ANyIEAADcpOgy90+WtEvSrFmzZmnXrl2aPJm6NRqTJ0/Wrl27NGvWLEmapfj7ypsJAHDEpQIAxT/LCAEAALcYKQBQ/HOEEAAAcIPhAgDFP8cIAQAApw0OABT/PCEEAADcwpWj/QsdRwcAAJxE8XcQIQAA4ASKvwsQAgAA+Ubxd4lBIYCL9y7/PvTfCwDca4qk/SIEOGpQ8d+fWC/wjmsknXO6EQCQKUKAgyj+BYEAAMCzCiYEtLW1mc7Ozks+JhwOm6amJhOJRMb0WuFw2NTW1hpJpq2tLePnU/wLBgEAgKcVTAi4nGwEgEgkYhoaGgZMSHS54JGK4l9QCAAAPC/jEJC6FVxbW2vC4XDyvra2tuQgKbs42sVy27Ztyed1dnYmH9vQ0JAszPZj7WWkM+Of3QNgPze1DW1tbcnCPfi1LrW8lpYWE41Gh/zdqSGis7Nz2McNh+JfcAgAADxluFMBn5C0UNKB/fv3a+HChTp58uSIC4jFYnrsscf0xBNPyBijJ554Qjt27JAkdXV1KRQKKRKJKBwO69FHH1UoFEo+9+DBg3rllVcUDAa1dOlSVVVVKRqNqqKiQj09PZKkjRs3qry8XMYYBYNBrVq1Sr29vRn9kX19fYpGowoGg9q5c6cikYgef/xxNTU1qaurS2VlZUOeEwqFZFmWLMtSfX29tm7dquLi4gGPiUQimjhxokpKSiRJFRUVOnr0qKLR6CXbc/LkSS1cuFD79++XpAOKv98nLvGUVkk9ksoG3dZ82T8eAIBhjDQZUEYhIFVdXZ1aW1slSUeOHNGyZctUVlam6upqLVq0SHv37k0+du7cuSouLlYgEFBTU5MWLFig4uJilZeXS5L6+/sVCoVUX18vSbrllls0e/ZsRSKRjP5I+3Vqamo0ffr0Sz42FotpxYoV2rt3r4wxMsaorq5u2McePXo0o3ZIoyr+tgZJCzJ+QQAAhnGp6YDTCgHFxcXasGGD2tvbZVmWFixYoP7+fsViMfX19Q14bFVV1YDrFRUVaTVyzpw5sixLJSUl2rZtW8aFN93XkeJ/z9atW1VfX5/sAUjttRjtcqUxFX9JelRSraTq4ZotaaviuxMOjfAYAACSLhUApDRDQFlZmXp6emSMUWtrq9atWydJyS1525EjRzJu4KRJkxQOh5Nb48YYNTfnvue7rq4u+Xp79+7VihUrFIvFBjwmEAjo7NmzyS7/o0ePqqKiIrlLINUYi78kvSfpx5LuHea+NZL6JFmSVkl6XAN3FwAAMMDlAoB0mRDQ39+vJUuWDNgvX15eruLiYlVVVamjo0P9/f3q7e3Vzp07k9356SgrK9OMGTOSYwp6e3t10003jbhFniutra3DjgEIBAI6ffq0wuGwYrGYXn755eTuhlRZKP62kKT3NXALv1hSuSR730pY0mlJgVEsHwDgE+kEAOkSIaCsrExf+9rXVFNTI8uy1N7ervvuu0+S1NzcrLq6OgUCAdXU1Gjt2rUj7k8fyZo1a9TX1yfLska9jOHYxbu5uVn9/f2jWkZZWZkef/xxrVq1SiUlJSovLx/SO5HF4m/bI2m54qPOAQDIC9+cJyAbsnioX2viYmtOLLN5mPvrNPSIAeQehwECKHiOh4BgMDjihCyjORtfLmT5OP/BAaBM8SJvBwAGATqPAADAFxwPAW7GSX58iQAAwDcIAcOg+PsWAQCArxACUlD8fY0AAMB3CAGG4g8CAAB/8nUIoPhDBAAAPubLEEDxRwIBAICv+SoEUPyRggAAwPd8EQIo/hiEAAAAKvAQQPHHMAgAAJBQkCGA4o8REAAAIEVBhQCKPy6BAAAAgxRECKD44zIIAAAwDE+HAIo/0kAAAIAReDIEUPyRJgIAAFyCp0IAxR8ZIAAAwGV4IgRQ/JEhAgAApMHVIYDij1EgAABAmlwZAij+GCUCAABkwFUhgOKPMSAAAECGXBECKP4YIwIAAIyCoyGA4o8sIAAAwCg5EgIo/sgSAgAAjEFeQwDFH1lEAACAMcpLCKD4I8sIAACQBTkNARR/5AABAACyJCchgOKPHCEAAEAWZTUEUPyRQwQAAMiyrIQAij9yjAAAADkwphBA8UceEAAAIEdGFQIo/sgTAgAA5FBGIYDijzwiAABAjqUVAij+yDMCAADkwSVDAMUfDiAAAECeDBsCKP5wCAEAAPJoSAig+MMhBAAAyLMBIUAUfziDAAAADkiGAFH84QwCAAA4ZIriAYDiDycMDgBXONUQAPAj43QD4CsPS3pf0kp9HACukLRW0geS/s65pgGAvxAAkE9TJV2UFJV0UtKHks4krr8nyXKuaQDgLwQA5Nt3JZ1X/LNnX96XtMbJRgGA3xAAkG92L0BqADgtqcjJRgGA3xhJdZJ6JJWl3F4saaukZicahYKX2gvA1j8AOMDuAWiW1Jpy++DrQDal9gKw9Q8ADrADQLGkRyRVK94TsFUf9wi06uOuWrtHoEzxXgMl+kq2AAAgAElEQVT79ro8tReF47uKj/xn6x+AJxTqlkpM0o8l3SvpPkkdkvr1ccG3JAUkLVQ8JCyQFErcPkfSMsVDBJCu/6V493+n0w0BAD8aPAiwVQO7/lO3/lN7AaolHRJb/xidyZJ+rvjn5+eJ6wCAPBocAAbv+2/VpQcC1iWWMXgQITCSKUoU/5S5KAgBAJBnlwsAzfq4uNv7/esSt9vBoFrSMyIA4PIGFP9Bs1ESAgAgjy4XAKThBwHahwkyCBDpGlL8jTGEAABwCCcCQj4MW/xthAAAyD8CAHLtksWfEAAAziAAIJfSKv6EAADIPwIAciWj4k8IAID8IgAgF0ZV/AkBAJA/BABk25iKPyEAAPKDAIBsykrxJwQAQO4RAJAtWS3+hAAAyC0CALIhJ8WfEAAAuUMAwFhNkbRfOSr+hAAAyA0CAMYiL8WfEAAA2UcAwGjltfgTAgAguwgAGA1Hij8hAACyhwCATDla/AkBAJAdBABkwhXFnxAAAGNHAEC6XFX8bYQAABgdAgDS4cribyMEAEDmCAC4HFcXfxshAAAyQwDApXii+NsIAQCQPgIARuKp4m8jBABAeggAGI4ni79tUAjYL0IAAAxBAMBgni7+NkIAAFwaAQCpCqL42wgBADAyAgBsBVX8bYQAABgeAQBSgRZ/GyEAAIYiAKCgi7+NEAAAAxEA/M0Xxd9GCACAjxEA/MuR4h8Oh01TU5OJRCImGo2alpYWI8m0tbXl5fUJAQAQRwDwJ1ds+UciEdPS0mIikUheX5cQAAAEAD9ytPjbPQC//vWvTUNDg5FkamtrTTgczms7CAEA/I4A4C+Ob/mn7gKIRCKmqakp78XfRggAkIkipxsAjNIUSbskzZw1a5Z27dqlyZP9Xe8mT56sXbt2adasWZI0U9JuEQIAjIAAAC+i+I+AEAAgXQQAeA3F/zIIAQDSQQCAl1D800QIAHA5BAB4BcU/Q4QAAH7CUQCFyfHR/l7G0QEA/IAAUHgo/llACABQaFZLikl6IHHdDgAPJG5f7USjkDUU/ywiBAAoJNdIuiApKimi+Bdbf+L6hcT98CaKfw4QAgAUkm9J+kDxLzT78kHidngTxT+HCAEACsU1ks5rYAA4L7b+vargi3/q6YMvpa2tzXR2duakDYQAAIUitReArX/vKvjin4lcBgBjCAEACkNqLwBb/96U0+Lf1taW7CFqa2tL3h4Oh01tba2RZBoaGpJb5cFg0LS0tJi1a9cm7wsGg8nHphbmYDCYXHZLS4uJRqOXbEtqD0AwGDRNTU2mqalpwEyCnZ2dyWXmOQRMcWDdA8CYfEvxgX9s/XtPTou/Xcyj0aiJRqNm7dq1JhwOm0gkYhoaGpIFtq2tLfk4u6gHg0ETjUZNS0tLMiAEg8Hk7+Fw2MyfP9+Ew+Hk41IDxnAGB4DBr2M/P9c9ADZCAOBPVzrwmn8q6c8l3Zjl5RpJbyZ+/kOWl51Lryve7t8ofuii3+T1DH/FxcV65JFHJEm9vb2aNGmSFixYIEm699579fd///c6duyYJKmhoUE1NTUqLi5WeXm55s6dq7KyMgUCAU2aNEmSdODAAVVWVmratGkqLi7WsmXL1NHRoVgspuLi4rTalPo6c+fO1ZEjR3Lwl4/MPmPgwoULtX///pmKr4+Fkk7ktSEA8ipfAeDPJLVbllVnjPnjHL/W9BwvP1felvQ/JT3jdEPyaLKkF5Tj4l9XV6ejR4+qpKREktTZ2anm5mZFIhGdPn06+bhAIKBrr702eb2ioiL5nEvZtm2btm3blrze0NCgaDSadgBI93VyaZgQ8DtHG4RC9IqkBknvOd0QxOUjAPydpMcklZSWlqqqqkpVVVWaMWNGHl7a/d555x29/fbbevHFF6+X9K+Sxkn6gcPNypeTkr4gadf+/ftnLly4MGchoLm5Wc3NzYrFYnrwwQdVUVExYEtekiKRiE6dOpXxstva2tTa2prN5ubdyZMn7eIvSQdEDwCy75zTDcBAuQ4AT0paLklr1qzRo48+muOX867vf//7+spXviJJd8s/AUCKF5mFymEI6Orq0pEjR5JFesKECQoEAgoEAjp9+rR6enrU3NysHTt2JLvzI5FIWsueOXOmfvCDH6i3t1fV1dVqb29XX1+fHnvssbR7AJxG8Qf8KZezATYoUfyfeuopiv9l3H333favX3SyHQ6xQ8CB/fv3a+HChTp58mTWFt7Y2Ki+vj5ZlqWSkhLV1taqurpaZWVlevzxx/Xoo4/KsiyFQiFt2LAho8JdXV2t9evXq6amZtTLGElVVZWWLl2qrq6uMS9rJBR/ALnQI8msW7cu56OYC8G+ffvsUdg/dXi9OYnzAOQRo/+RZ+fEIdq+sFyJL/HLHRONuI0bN9pfxBscXndO83wIsA/n08CzUw44zt9pFH84gADgB0VFRf8hyTz//PNOf895xrx58/6g+Jdxg8Orzw08HwLcjOIPhxAAfOBWSebmm292+nvOM0KhkP1lfNDhdecmhIAcoPjDQQQAl8nFIMBGSVq0aFEOFl2Yuru77V93OtkOl8npwEA/YsAfgFwaP27cuP+SZA4fPuz0xo4nxGIxc911111QfIvMqycxyiV6ArKALX+4AD0ABe5vJJnGxkanv+88o6ury/5SZut/ZAURAtKdBjjbKP5wCQKAy2R7F8Aiie7/TOzcmaz7BICReX53QG9vrxYvXjzg1MP5QLc/gHyYLslUVlaaWCyW1y0crzp8+LC9VXZE0nhnV58neLInwJ5G+Pnnn89rDwBb/nAZegBcJps9AI1S/Kxr48dTy9KRMvivW9J5B5viFXntCQiFQrIsa8glFApd8r7B6urqdOjQIdXU1OSsrYOx5Q8gbyzLOiTJhEKhvGzdFIIbb7zRPvb/VodXn9d4sicgX2MA2PKHS9ED4DLZ6gG4wxhTW19fr1tvpZalY8+ePXr99deLJO2V9DOn2+Mxnh8TkCts+QNIV7YCQLL7H+kZ1P2PzOU8BGRrF0C+uLT4tyo+L0jZoNuanWkOgGyaWlRUdK60tNQcP348p12bheL48ePm6quv/kjSaUlTnV6BHueZ3QG53AXg4m7/VsXb1DzoNgKA/7ALwGWy0QPQePHixWsWLVqkqVPzV8v6+/u1ZMkS9fb25u01s6W7u1vvv//+FYof+veu0+3xON/vDnDpln+qRyXVSqoe5r5iSVsVDwmHRngMgBzISgCQ6P7PBN3/WeeJEFBdXa1nnnlGZWVll39wmjxQ/CXpPUk/lnTvMPetkdQnyZK0StLjGri7AIBLZXXiH3sa1cWLFxtJJhgMDpladfBttbW15tChQ6alpcUEg0FjjDGRSMQ0NTWZcDhswuGwmT9/vpk/f75paGgw+/btM01NTUOWmS9M/JNTntkdkA0u7vZP1Zq4SNKDim/h27sA7K3/usT9ZZKeEb0AhYpdAC4z1h6AnEz8c8MNN8gYo7q6Om3cuFHl5eUyxigYDGrVqlU6duyYNmzYoKamJj377LP6zGc+c8nlnThxQuvXr1dPT49KS0v1xhtvaO7cuTLGqK2tTR0dHYrFYln9G0bCxD855YmegGzwyJb/YHskLRdFAHCFsQSA8ZZlfUnKfvd/VVWVpPh+/lAopPr6eknSLbfcotmzZysSiWS0vClTpigQCAy4PnPmTElKLjsfzp8/r+eee+5i4ird/7lR8CHAo8Vfknol/ULS2sT1mOLd//Y/YY2kSZIy+wcHMCpjCQCNxpjrGxsbNX16diexq6ioGHB9zpw5sixLJSUl2rZtm44ePZrR8q699toBAWDw9Xzp7u7WsWPHihQv/m/kvQH+UbAhwMPF39Yj6d9Trm+UVK74bownJD0gqd+BdgG+c+UYnpuXiX8mTZqkcDis6uqBuwX7+0f+johEIjp16lRO2zUaTPyTV3YI2LV///6ZCxcu1K5duzR58mSn2zVqHi3+7YOu90takHI9JmlF4gIgj0bbAzBdUmNlZWVOR/+XlZVpxowZ2rFjh6T4jGo33XTTiCdb2bt3ryTpwIEDOnHCXd+Lb7zxhr3//y3R/Z8vBdMT4NHiD8DFRhsA8jbxz5o1a9TX1yfLslRTU6O1a9eqrq5OJSUlmjhxohYvXqxjx47pwQcf1M6dO2VZlk6ePJn13RJjxcQ/jvF8CKD4A3CTg2Lin4zcfPPN9uFaTJbgDE8eIuiRQ/2AdHAYYAG4Q5Kpr693+rvRM3bv3m1/gb/k8LrzO0+FAIo/CgwBwGVGswuAM/9liDP/uYZndgfQ7Q/AbaZKOjNhwoSLTPyTnuPHj5sJEyZclHRGTPzjFq7uCWDLHwWKHgCPWyXJLF++3OnvSM/YsmWL/UX+pMPrDgO5MgRQ/FHACAAe95Iks3v3bqe/Jz2jvr7e/jK/w+F1h6FcFQIo/ihwBAAPy+rEP7nU1tZmOjs7nW4GE/94gytCAMUfPkAAcJlMBgHmZOKfbGtvb9f69eudboYkJv7xCMcHBjLgD4AT0g0A4+Xy0f+xWEwrVsTPJtrW1uZwa+IT/zD63zMcCwEUfwBu9zeSTGNjoyPdo5lywy6Arq4uuzuXrX/vyOvuALr94TPsAnCZdHsA8jLxTyFh4h9PyltPAFv+ALxguiQzbdq0P8RisZxuEaUrGo2alpYWe8tpyNa+0z0Ahw8fNpKMZVlHFd99Am/JaU8AW/7wKXoAXCadHoBGSbrnnnuKcj3xT7qKi4u1detWGWNkjFFzc7PTTRrA3vdvjPmRmPjHi3LWE8CWPwC3SCcALJLcO/jPjVK6/xn8511ZDwEUfwBucrkAcIekm+vr63XrrUxil449e/botddek6S9kn7mcHMwNlkLARR/AF7zpCSzZcuWrO4DLWTLly+39+2ucnjdIXvGNCaAff6AJMYAeMpUSaevvvrqj5j4Jz3Hjx83paWlpqio6JyY+KfQjCoEUPyBJAKAhzDxT4aY+KfgZRQCKP7AAAQAD2Hinwwx8Y8vpBUCKP7AEAQAj7hVkrnxxhv/kOca6ln2xD+WZR1yeuUh5y4ZAij+wLAIAC4z0lEAjZJ07733ZjJZkK+lHPv/nMNNQe6NeHQAo/0BeNl4SUckmcOHDzuzOe0xsVjMVFZW2lt8051dfcijIT0BbPkDI6IHwAM8NfGPGzDxj68NCAGi+AMjIQC4zHBd/Ez8kyEm/vG1AbsDRLc/AI+aLslcd911F9wy8Y/b2RP/jBs37r/ExD9+NkXxrX+2/IHh0QPgMoN7ABolafHixePcMvGP29mD/z788MNnxcQ/fnZi0E8AcLXBAYCJfzLExD8AAK+bL8nMmzePY//T9PzzzxtJpqio6D+cXnlwBeN0AwAXYxeAy6T2AMySpLvuuotj/9MQi8W0YcMGSdLFixc7HW4OAAAZSS32fylJ8+bNc6YlHrNhwwb7ZC//Lukph5sDb6mT1COpLOW2YklbJTU70iIAvmYkmbNnzzrds+5627Zts4/3NpIanF1tcJFMdgE0S2q9xHWg0LALwMW2SzKdnZ1O11dXu//++1OLP7P+IVUmAaBY0iOSqhXvCdiqj3sEWvXxZ8zuEShTvNfAvr0uC+0F8okA4DJWyu9LJP2rJN1+++0qLy9XZWWlM61ymTfffFNvvvmmfvOb3+jUqVOSFFP8S3qTsy2DyxgN/J+6nDpJ9Ynf90oKKV7wqyS1K170t0j6B0kzU26vk7RM0oOKfxYBLzgnqVzSe043BMP7oqTf6uOtDC4pF8uy3pX0vKSbR/0Oo5CN5iiAVg3s+k/d+k/tBaiWdEhs/cO76AFwmSsHXf83xQe1VScuNXlv0dj8T8W3yi9kebkHJB02xhzJ8nKBI4pv2adaKqlrmMfepHjxDyr+f9osqT+nrQMAjyBhwkmj6QEYbjCgfYSAvd+/LnG7PR6gWtIzGngUAeB2fD+7zOAeAADO6lK8RyCSuL5U8bEBByU9Jsk+58QcsfUPAEkkTDiJMwECI+P72WU46x8AAD5EAAAAwIcIAAAA+BABAAAAHyIAAADgQwQAAAB8iAAAAMiVK5xuAEZGAABGb7Xik/E8MOj2BxK3r857iwD3+DtJUUlrNTAI3CfpfUkPO9EoFC5ONIF8ukbxeSeiip+5zyh+dr5o4nY+i/AzS/Hv5KikM5I+lHQycf2ipKnONQ2FiACAfPuWpA80cPa+DxK3A363RvGt/dT/j/OSvutko1CYCADIt2sU/0Ib/AXH5xCI72Y+rYH/H2z9IycIAHBCai8AW//AQKm9AGz9I2cIAHBCai8AW//AQKm9AGz9I2cIAHDKtxQf+MfWPzDUGrH17zpXOt0AIM/+VNKfS7oxy8s1kt5M/PyHLC87l15XvN2/UfzQRbhPrj6z+WQp/hm7IG/9fxQKX/yf0wOA4fyZpH+zLOukBg5G4vLx5aikJaN9g5F18yX976Kiov8r5z8bXArn8qak25VgqbCck1Qu6T2nGwLX+DtJj0kqmTRpkqqqqlRVVaUZM2Y43S5XeOedd/T222/rxRdftG/6sqQfONgkv/uspK9JWiZJfGaRDcP8n39K0rsONikn6AFAqieVSL5r1qwxGNn27dvtLYRuZ1eZr31Oic/rpz/9afPd737X6Y8FCszDDz9s/58vlDgVMApXg6TlkvTUU0/p0Ucfdbg57nb33Xfbv37RyXb42ARJWyXp4Ycf1quvvqr777/f4SahgM10ugG5QA8AbD2SzLp165wO3Z6wb98+e8vgpw6vN7/6gSQzf/58pz8KKGDl5eX2//kMiR4AFKblkhpmzZqldevWOd0WTwgGg/avLzvZDp9aJWnZlClT9NhjjzndFhSoJ554Qn19fZL0E0mHJQIAClBRUdFSSVq3bp2Ki4udbo4n7Nq162LiV3oA8muKZVlrJGnDhg0M9ENOnDhxQo8++qj9P97paGNyiF0AuFWSufnmm53ubfOMUChkdwsedHjd+dEjksxf//VfO/0xQAFbu3at/T++J/XDRw8ACk2jJC1atMjpdnhGd3dy4P9OJ9vhQ38habUkPfTQQw43BYXq1Vdf1aZNm+yrm1PvIwCgkIwfN27cYklqbGx0ui2ecP78eT377LMfJq5yCGB+PSSpaMWKFfqrv/orp9uCArV582ZdvHhRih9l8mLqfQQAFJLGDz/88LrGxkZNnz7d6bZ4Qnd3t955551xihf/N5xuj4/cK+neP/7jP9bq1audbgsK1I4dO7Rjxw5J+r+SNg2+nwCAQrJIovs/Ezt3Jnv96f7PnyuU6PpfvXq1Pv3pTzvcHBSiP/zhD6ld/5sUPw1wQWMQoH9Nl2QqKytNLBZzesyNJxw+fNgeGHRE0nhnV5+vrJVkZs6caS5cuOD0xwAF6pFHHrH/v/dLGjfcB5EeABSKRim+73/8eGpZOlIG/3UrPlUrcq/Ksqy1Unzrf9y4Yb+XgTE5cuSIHnnkEfuwv02SPhzucQQAFATLsu6RGPyXiR07dthfEAz+y5/Vxpg//tKXvqSmpian24ICtWnTJkUikSJJP5L0Q6fbky/sAvCnOySZ+vp6p3vdPGP37t129+BLDq87P7lNicl+fvaznzn9EUCB2rt3b+r0v5+71AeSHgAUgmT3P9IzqPsf+ZEc+Pe5z13yexkYtUED/15xsCl5Rw+A/0wtKio6V1paao4fP+50+PaE48ePm6uvvvojSaclTXV6BfrEVySZiooK09fX5/RHAAXq6aeftrf835L0qct9KOkBgNc1Xrx48ZpFixZp6tT81bL+/n4tWbJEvb29eXvNbOnu7tb7779/heKH/r3rdHt8YILiJ/3RQw89pE996rLfy0DGzp07p82bkyf62yzp+OWeQwCA19H9nyG6//PuIUl/9t//+3/X/fff73RbUKA2b96sX/3qV5L0/0n6R4eb4wh2AfhLVif+iUajpqWlxSxevNhIMsFgMHmbEoNqBt9WW1trDh06ZFpaWkwwGDTGGBOJRExTU5MJh8MmHA6b+fPnm/nz55uGhgazb98+09TUNGSZ+cLEP3n355Lel2R+/OMf5209w19ef/11U1JSclHx/+070/1w0gMAL8vJxD833HCDjDGqq6vTxo0bVV5eLmOMgsGgVq1apWPHjmnDhg1qamrSs88+q8985jOXXN6JEye0fv169fT0qLS0VG+88Ybmzp0rY4za2trU0dGhWCyW1b9hJEz8k3cPSbrqb//2b3XnnWl/L3uel3eRedHmzZsVjUYtST+Q9L/TfR4BAF413rKsL0nZ7/6vqqqSFP8SC4VCqq+vlyTdcsstmj17tiKRSEbLmzJligKBwIDrM2fOlKTksvPh/Pnzeu655zj2P38WSvp/rrrqKs73j5zZtWuXvv/970vS7zXM+f4vhQAAr2o0xlyfi4l/KioqBlyfM2eOLMtSSUmJtm3bpqNHj2a0vGuvvXZAABh8PV+6u7t17NixIjHxT74kD/u78cYbnW7LmMViMa1YsUJNTU2yLEuhUCh5m2VZA25bt26dfvjDH2rx4sX6xS9+oRUrVigUCkka2DvQ29urhoYGNTQ0aMGCBXr11Ve1ZMmSIcvEyAYd9vd6Js8lAMCr8jLxz6RJkxQOh2WMSV6am5sv+ZxIJKJTp07ltF2jwcQ/ebVK0rwZM2booYcecrotWVXIu8i85oknntBPfvITSTqs+Mj/jBAA4EXTJTVWVlbmdPR/WVmZZsyYYU+nqd7eXt10000jbpHs3btXknTgwAGdOHEiZ+0ajTfeeMPe//+W6P7PtU8qZet/4sSJDjcnuwp1F5nX/O53vxu89X8202UQAOBFeZv4Z82aNerr65NlWaqpqdHatWtVV1enkpISTZw4UYsXL9axY8f04IMPaufOnbIsSydPnsz6bomxYuKfvFotqfKOO+7QV7/6VafbknWFuovMazZt2qS33npLkvZIeno0y7gyqy0C8mORlP3Bf8XFxdq6deuwt410e6pDhw4Nu9xnnnkm+Xt1dfWA63V1daqrqxtr0y8rpfufrf/c+gulnPSn0Nm7yKqrqwfc3t/fP+Jz3LqLzEteffXVwSf9GRV6AOA1d0i6ub6+XrfeeqvTbfGEPXv26LXXXpOkvZJ+5nBzCt1qSUUrV67U7bff7nRbcqqQdpF5zaZNm3Tx4kVJ+ieNYUIvAgC8hjP/ZYgz/+XNYkn3TJ482Rdb/1Lh7CLzkmeffVbPPfecJJ3UGLb+CxFnAixsUyWdmTBhwkUm/knP8ePHzYQJEy5KOiMm/smlKyW9Ksl8+9vfdnq1o0B9+OGH5rOf/ax9Ns//NxsfWsArGiVNvOeee/I68Y+XdXd369y5c5akH4mJf3LpIUmfnTVrFif9Qc5s3rxZP//5zyVpvzI86c9w2AUAL6H7P0N0/+fFn0haI8UP+7vySrarkH2//e1v9eijj5rE1U2SPnKyPW7ELoDCldWJf3ItHA6bpqYmE4lEHGsDE//kzROSzJe+9CXH1jUK33333Wf/Pz+XrQ8uPQDwipxM/JMLvb29Wrx4sU6fPu1oO5j4Jy/qJd1nWRZd/8iZvXv36nvf+54UDwBj7vq3EQDgBePlwu7/9vb2IYc8hUIhLV68WN/4xjc0adIkh1oWn/iH7v+8SJ7xb/bs2U63JSPDfX7dIBQKacWKFZc8/e/lZhvs7e3VY489lqsm5t2gM/7ty9Zy2VkFL2iUVJmLiX+yra6uTocOHXJ8GtTu7m77LGFM/JM7X5F0R0VFhecO+7MLfz5OQpWpsZ4cq729Xe+9956uueYaLVmyRFu2bFFZWVkWW5hf27dv1549eyTpqDjs75IYA1CYdkoyXV1dTu+GM5FIxDQ0NNj74pKXlpYWE41Gk49zegxAY2Oj3ba/cXC9FbIJkn4lyfzjP/6jI+t4tKLRqFm7dq0Jh8PJ6y0tLcnPcmdnZ/KxwWBwyGfcfvy2bdtMbW1t8jltbW1GkmloaEh+7gcvOxgMXrZ9wWDQtLS0mP7+ftPS0pJcriTT1tY2YJm1tbXJvyNVZ2fnkP9JLzp79qy54YYb7L//a9n+ELMLAG43XVLjtGnTLrqh+7+srEw9PT3JmcqCwaCMMdq6dauKi4udbp6kjyf+sSzrbdH9nyurJd0wb948fe1rWf9ezqljx45JkqZNmyYp3ltkz+gXiUT08ssvq7+/X729vVq1apWCwaCi0agkaePGjcnlHDx4UK+88oqCwaCWLl2qqqoqRaNRVVRUqKenJ/n4wbMFZto71tfXp2g0qmAwqJ07dw6ZbXDwaYhDoZCOHDmiZcuWDWivF23atEn/+Z//KUk/kbQl28snAMDtGiXpnnvuKcr1xD+Fwt73b4z5kZj4JxduVGLfv9e6/qX4ufivueaaYQNrWVmZtm7dqrKyMkUiEc2ePVu33HKLiouLtWzZMoVCoeR5/OfOnavi4mIFAgE1NTVpwYIFKi4uVnl5uaTszRZov05NTU1auwDr6urU2tqa/OlVr7/+ujZu3Ggf9peTrn8CANwuJxP/ZIP9JeM2TPyTcw9JuurLX/6yvvCFLzjdlowNnq2vublZkmRZlizLSo4PGPy4QCAwYGDr4FkBRzLW2QLTfZ1Cs3nzZkWjUUvSv0h6IRevQQCAmzHxT4aY+CfnviDpyyUlJcaLW//S8AW1tbU1uQtgy5Yt6u3tHfK4SCSS8aGt9myBxpjkxQ4cGNkLL7ygf/mXf5Gk3yuHA/8IAHAz1x36ly572t98jz7m0L+ce0iS1qxZY914441Ot2VUAoGA3nvvveRhdu3t7erq6kreP3HiRAUCAQUCAe3bt08HDx5ULBZTR0eH6urqdO2116b1OpnOFoiPpUz1u0nS67l6HQIA3GqqpEVXX331H7wYAJzw7rvvaufOnSoqKnpPBIBc+JqkeTfccIOnT/pjD/6zBwPed9996ujokGVZCgQCWrZsmcrKylRdXa0nnnhCc+bMUUlJiaT47I4dGWgAABYeSURBVH+ZGGm2wLFKnW3Q6UNus23Lli36yU9+Ikn/qSye9McPOAywcKySZJYvX+7YIThes2XLFvtwoScdXneFaKqktySZp59+2ulVPWbBYNC0tbU53QwMcvz4cVNRUWH/H38l1x9qegDgVp7t/ncK3f859ZCkijvuuENf+UrOv5dzzt4Kd6I73t4VYA86TL1c7gyAhW7z5s32IMk9krY72xrvoQegMNwqydx4441/cDqRe4U98Y9lWYecXnkFaLaki5LMSy+95PSqRoF65ZVXjGVZ9tZ/fT4+2PQAwI0aJenee+/l85mmlGP/szZTGJJWS7Luu+++5DHtQLZt2rRJxhhJ+p7iR/EgQ/QAeN94SUckmcOHDzsdyj0hFouZyspKe8vB3ZMleM9iSSYQCFx88803nV7VKFA//OEP7f/fk5L+JF8fbraw4DaemfjHLZj4J2euVOKMf2vXrrX+5E/y9r0MH/noo49SZ/vbKOm3+XptAgDcZpEkLVq0yOl2eEbKmf92XupxyNhqSbM++9nP5uyUv+3t7aMe/Ha5KXFH0tvbqyVLlqi/v3/Ex8RiMa1YsWLAIMGurq4B5wtwi3T+Hmno+Q7G+jq9vb36+te/nlxvg6+na9OmTdq/f78k/Vx5nu2PAAA3mS6p8brrrvuQ0f/psSf+GTdu3Dti9H82fVqJk/489NBDuvLK7M+cHovF9N577ykcDud1MqnRnKSqt7dXv/jFL1x5VE4+TrrV29urxYsXDzgTYnV1tWpra5PjbwZfT8ebb76ZetKfzZI+yl6r/YcxAN62TpJZvXq107vkPOOb3/ymve/Q29Oeuc/3JJl77rknJ+ttuGlyB081nXqcfup9DQ0N5p133hkyJe5IU++Gw2Ezf/58M3/+fNPQ0GD27ds3YKrqzs7O5HMGL8teRltb24CpfAdP0WsLh8PJKYJTpwW2p/hdu3Zt8r5gMDhgOmHbcFMQX0rq1NvBYNA0NTWZpqamAX9P6t+Y+lrpsNv5/PPPD5niOxKJmJaWluRtg69fzsqVK+127cjjZzuJHgC4iWsn/nErJv7JidslrSwqKsrZGf+Ki4v12GOPqaWlRcFgULfccovWrVunZcuWyRijcDisYDCo3t5exWIxrVu3Lnm+/mXLlunpp58eMiWuPfWtPXVu6tS7J06c0Pr169XT06PS0tJkO0KhkDo6OhSJRGSM0aJFi5Kn7rX19/err69PNTU1yefYU/RGo1G999576u3tVX9/vx544AGtXbtWxhjV1dVp3bp1yS7xbdu26a677kpOGdze3q6XXnpJwWBQHR0dySmI29raFA6Hh52COB0//OEP9bWvfU3RaFSzZ8/Wjh071NzcrLa2NnV2dmY8F0FdXZ0OHTqU/PtTlZWVqby8XOFweNjrl/LSSy/pn/7pn6T4IaaOnPGPAAC3mC/p5nnz5l1k4p/0/PjHP9Zrr72moqKin4iJf7Ip2fX/F3/xF3l5weLiYm3dujVZnAKBQPKc+8eOHdPZs2eTBai5uXnINLexWEx9fX1atmyZiouLk1PvHjhwQJI0ZcoUBQKBIa9bV1ennp6eZPd5VVXVkMdEIhFNmDAheTrgwe1+5JFHVF1drUgkokmTJmnBggWSpHvvvVdvvfVW8pTDDQ0NqqmpSU4ZbJ9yOHWWwQMHDqiyslLTpk1LTkHc19eX0X711NeZO3du2s8braqqqgEzHA6+PpJBXf+v5qBpl0UAgFvMkqS77rqLz2QaYrGYNmzYIEm6ePFip8PNKSRflXRHZWVl3s/3HwqFkmfECwQCeuON+AEd6czCF41GBxQdu8jarr322mEDgD3Yz37dpUuXDnlMJBLRuXPnktfr6uo0d+5clZSUyLKs5MC6we1MDTFSfBbC4ULEYNu2bUsue86cOTp69GiyNyAd6b6OzR6IaVmW2tvb037eWDz99NPas2ePFD+9tGPn++fLFm7xl5I0b948h5vhDRs2bLBHDv+7pKccbk6hmKjEYX+rV6/WJz/5yby9cH9/v9rb2xUMBpPT8tqHwaZuIY+kpKRkwPS9do/A5dgD1qLRqIwx6uwcmiUDgYAmTJgw4Lbm5mYZYxSNRvXyyy8rFAoNaWckEtGpU6cu24bB2traBkwfnNpDkQv2rhVjzJCelVw4e/Zs6mF/myT9LucvOgICANxivjR8FyQG+ud//ufk1r+kx5xsS4F5SNKMefPmadWqVY42pKenJ9kDEAgEdPr06eR+5a6uLq1YsULnz59PPt7e4u/o6FAsFtPBgwe1b98+zZw5M+3X7O/vV0dHx5DbA4GAzp07l9wK7+r6/9u7/9iq6/2O489voTWUgFV66w5klpKbnKbBlXlPVC6YWRFkEppODc6owxv/gErmBjeQ3T9sBUeuCbX8cC6ZkXXDnmGMf8yd9epc4V6VYrd2i4OGFGkoYYEiFGjLCuGIfPbHOd/y7QGR4mk/3/P9vh7JJ+SUk8P7fD4N7/f38/18Pt/4qCvl6dOnjzw++Pz583zyyScAfPDBByPT+bcqFouNrH2A1NW5358PcPTo0VHFV+brTI2NjRw6dAjgd8Db4xvdzakAEL/4B4BEImE5DH975ZVXWLVqlftyJ6kZAPnx/gDP1f9EmzFjBi+88AILFy7EcRyGh4d56KGH6O/vZ8aMGWzfvp01a9bgOA7vvfcemzdv5u677x71SFz3Ub2FhYUsXLiQt99+m2g0etN/d+nSpRw7dozCwkKee+45amtrr7vnnrmw7cknnxx5xG9hYSGVlZVEo9GROLds2YLjOLS1tbF58+YxbW+MRqPU1dVRXl5+25/xfebMmcPzzz+f1bMMMhdIZr7OdODAgcyrf6sc2wFk2RAwC7hgOxAZs2eBfwJYtGgRs2bNoqyszHJI/tDT00NPTw9Hjhxxp1QvAa/ig/9AAuQfgT978cUXaWrSQ9gyHT58mJ07d7Jx48YJO68gF7jFhLt4M/N1ppUrV7Jr1y5IXfDk/mMlfUbnAOS2PyF1DKZRu745jtMH/DPwh7fdw3Ij1YApLCy8euDAgTHtEQ+T5ubmMe+hz4bM8w28zd3nb0N3d7dZv379yDkFma8zffTRR27c/wfcZ+233UMzAOI3hUA03W48j+ZPBaSmkH89Dp/dCRwi9ZAkyb7fAX9UX1/Pa6+9ZjkUCapHHnmEzz77DGAj8JrdaIJJMwBiyzRSv3+SW/4cMHPnzjWDg4MTeQEpIbJjxw736v8gMP3mv5ITR4sARSSsZuI59Cdzq5tINpw8eTLz0B/fXCioABCRsFoHzF62bBm/+IXWY8n4aGxsdA9pagF8tcJUawBEsmMacAIfTe/JTc0nfXzy3r17qaqqshyOBNGXX36J52jzR4HfWgznOpoBEJEwWgfw8ssvK/nLuPFM/f8tPkv+oAJARMLnT4Gni4uLr9o49EfC4f333+fDDz/EcZwz+PTMDhUAIhIm+aRP/NuwYUOejp6W8fDtt9+OnPhnjNmCT7fwqgAQkTBZB8QeeOAB1q1bZzsWCajGxkb3Ucz/SWrlvy9Nth1Aln2Jj7ZYSNZ9CjxuOwjJWT/Fc97/pEmTLIcjQdTT05N53v93FsO5qaAVAEoOweWushe5Xb8EfrJixQpWrFhhOxYJqDfffJMzZ84AfJBuvhW0bYASXH7fZuf3+MLuMeDf8/Ly2L9/Pw8++KDteCSAWltbWbx4McBV4OfAf9iN6Oa0BkBEwmAdpKb+lfxlvHi2/b2Jz5M/qAAQkeB7Cfjj0tJSbfuTcbNz504+/vhjHMc5hk+3/WVSASAiQfcUwPr16/Puuece27FIAH399dfU1dUBYIxpAL6xG9Gt0RoAyRV+v8fu9/jC6qfAkdmzZ9Pb22s7Fgmo6upqEokEwN+TmnHKCUHbBSAi4vU8wMqVK23HIQF07tw5duzY4Sb//wL+0nJIY6ICQESCbL/tACSY3nrrLXbs2EFPT4/7o9Xk2IPodAtAcoXfp9j9Hl9Y3QOcAli0aBGzZs2irKzMckiSq3p6eujp6eHIkSOcO3fO/fF7wN+QOvVPRMZBBLgCGB+3fxu3by8/xiPA19j//VALSMvLyzsF/AuwhBymGQDJFRFSV9jauSK3oxCIplu55VjC6lektsclbQfyI3QCh/Dpw31EgipC6nQtEclNQ6RulYlP6GpKREQkhFQAiIiIhJAKABERkRBSASAiIhJCKgBERERCSAWAiIhICKkAEBERCSEVACIiIiGkAkByVYHtAEREcpkKAPGz35I6/W+352cFwL8Cl4FmG0GJiIjI+JrHtQdwfJf+86rnTxWwIrlDRwGLyJj8Dzd+IlfCZlAiMmYqAERkTLyzAG67Cky2GZSIjJkKABEZs8xZAF39i+QeFQAiMmbeWQBd/YvkJhUAInJb3FkAXf2L5CYVAD6jKynJpmlAJKNNz9Jn7wdKgf8G6rP0mUNAX0a7kKXPFhHxNcd2AJLTYsATwDKgnOwle5uGgG6gBfgN0Gk3HJHAGAJmoSLbN1QAyFg94Wll3r+YOnUqkUhkVCsqKrIS5K0YGBigr69vVBseHs58Wy+pQsBtInJ7VACI5KiXgCN4VuOXlpaa2tpak0gkzMDAgAmCgYEBk0gkTG1trSktLc3cfngk3Q8iMnZaAyCSY54mNQ1uABOLxUxdXZ1pb2+3nasnRHt7u6mrqzOxWMxbCHSm+0VEbp0KAJEcsQTYSzrpRaNR09TUZDsfW9XU1GSi0ai3ENib7icR+WEqAERywAbSSS4SiZht27bZzr2+sn37dhOJRLyFwAaroyWSG1QAiPjcu6QTW319vUkmk7bzrS8lk0lTX1/vLQLetTpqIv6nAkDEp8qAzwGTn59v4vG47RybE+LxuMnPz3eLgM/J2BkhIiNUAIj4UBVwCjAVFRWmo6PDdl7NKR0dHaaiosItAk6l+1NERlMBIOIzc4ATgKmpqTGDg4O282lOGhwcNDU1NW4RcCLdryJyjQoAER+ZROqIXVNdXW07hwZCdXW1WwTsT/eviKSoABDxkd2AqaysNENDQ7ZzZyAMDQ2ZyspKtwjYbXl8RfxEBYCIT7wBmKKiInPw4EHbeTNQurq6TFFRkVsEvGF5nEX8QgWAiA/UkN6+1tLSYjtfBlJLS4t3i2CN1dEW8QcVACI+0AmYhoYG23ky0BoaGrxHB4uEnQoAEctWA6a8vNx2fgyF8vJytwhYbXncRWxTASBiUX5eXl4fYJqbm23nxlBobm42gEn3e77l8RexSQWAiEUbAVNVVWU7L4ZKVVWVOwuw0fL4i9ikAkDEkiLgCmD27NljOyeGSmtrq1sAXEmPg0gYqQDwmTzbAciEWQ5MWrx4MY8++qjtWEJl0aJFLF68GFIHAy23HI6ICKACIEyWAyxfrvxjg6ffNQAi4guO7QBkQkx2HGfYGFPQ29vL7NmzbccTOseOHaOsrAzHcZLGmKmkbgeIhMkQMAu4YDsQSdEMQDgsN8YUzJ8/X8nfktmzZzN//nyMMQVoFkBEfEAFQDho+t8HdBtARPxEBUA4PAYqAGzz9P9jNuMQEQGtAQiLK8Cky5cvU1BQYDuW0Eomk9xxxx0A3wGTLYcjMtG0BsBnNAMQfBFgUklJiW+Tfzwex3GckRaPxwE4e/Yszz77LIcPH7YcYXYUFBRQUlICqe2Ake952zTglxMWlIiElgqA4JsJMHPmTNtx3NDhw4fZtWsX3d3dGGPo7u5my5YttLW10d/fz7lz52yHmFWeccgckGnAr4GzwF9PZEwiEk4qAILP1wVAf38/juNQXFwMQDQa5auvvuL+++9n69atfPrpp2zdupVLly7R1tY2Mkvw+uuvA9dmCd555x0cx2HevHm+njG4QQHgJv4zwDpSt2v+auIjE5GwUQEQfL4uABYsWMCCBQsoLi7GcRza2toAmDJlCmvXrmXJkiWsXbuW48ePs2nTJrq7u7l48SInTpwYuVVw/vx5vvnmG4wxrF+/fqRg8CPPOMxhdOK/AygALgLbrQQnIqGiAiD4fg/8WwAAvPrqqyPT/2vWrLnhVXx/fz9lZWXce++9TJkyhYcffpijR48CcNddd7FixQoAYrEYg4ODXLx4ccK/x63wjMMqUvf63cTvmkHquQFqakFrXYivqAAIvlMAJ0+etB3HD3Kn/5966ik6OztthzMuPOPwd8CbwGUg6XnLOVK7c9TUgtZ+jnYA+IoKgOA7Cf4tAOLxOEuXLuXs2bOjfp55YmFxcTG9vb0cP36cS5cu8cUXXzBnzhwgdQvALRg6Ozu58847KSwsnJD4x8ozDkeBXwE/ARq5VghMAf7CSnAiIhIoPwPMvHnzLD4Q9+Y2bdo0aqqwubnZGGNMf3+/efzxx82qVavMxYsXzb59+0bes2nTplHveeaZZwxgKisrTXd3t82vc1Pz5s1zv8PPMsbJXQyYBPy5gEFERHJKBDAlJSW2c9+4cAuAffv22Q7llpSUlLgFgM4BEBGrdAsg+PqA706fPk0ymfzBN8v4SSaTnD59GlInAfZ9z9sukFobICIyrhzbAciEOA78/sGDB5k7d67tWEKrq6uL++67D+B/gXsthyMiIacZgHBoBUgkErbjCDVP/7fajENEBFQAhEUCVADY5ul/DYSIWKdbAOEw2XGcYWNMQW9v73Vb7GT8HTt2jLKyMhzHSRpjppI68ldExBrNAITDFWPMR6BZAFvcfk+Pg5K/iFinAiA8dBvAIk3/i4iILUWkrjxNa2ur3c3wIbNnzx537/+V9DiIiIhMqI2Aqaqqsp0TQ6WqqsotADZaHn8REQmp/Ly8vD48x+3K+GpubjaASfd7vuXxFxGREFsNmPLyctu5MRTKy8vdq//VlsddRESETsA0NDTYzo+B1tDQ4Cb/YD7bWEREck4N6afqtbS02M6TgdTS0uJ9wmGN1dEWERHxeAMwRUVFpqury3a+DJSDBw+aoqIiN/m/YXmcRURErrMbMJWVlWZoaMh23gyEoaEhU1lZ6Sb/3ZbHV0RE5IYmAfsBU11dbTt3BkJ1dbWb/Pen+1dERMSX5gAnAFNTU2MGBwdt59CcNDg4aGpqatzkfyLdryIiIr5WBZwCTEVFheno6LCdT3NKR0eHqaiocJP/qXR/ioiI5IQy4HPA5Ofnm3g8bjuv5oR4PG7y8/Pd5P95uh9FRERyzrukt6/V19ebZDJpO8f6UjKZNPX19d6tfu9aHTUREZEs2EA6sUUiEbN9+3bb+dZXtm3bZiKRiDf5b7A6WiIiIlm0BNhLOslFo1HT1NRkO/da1dTUZKLRqDfx7033k4iISOA8TfroYMDEYjFTV1dn2tvbbefjCdHe3m7q6upMLBbzJv7OdL+IiIgE3kvAEa4lQVNaWmpqa2tNIpEwAwMDtnN1VgwMDJhEImFqa2tNaWmpN+mb9Pd/ydoIiIhkkWM7AMk5T3jaqBXvU6dOJRKJjGpFRUVWgrwVAwMD9PX1jWrDw8OZb+sFfuNpIiKBoAJAfowYqUJgGVAOTLcbTlYMAd1AC6mEryf5iUggqQCQbJoGRDKan4uCIaAvo12wGpGIyAT5f5PD2mA3+10lAAAAAElFTkSuQmCC;" vertex="1" parent="1">
                    <mxGeometry x="100" y="400" width="512" height="632" as="geometry"/>
                </mxCell>
            </root>
        </mxGraphModel>
    </diagram>
</mxfile>